<svg width="63" height="45" viewBox="0 0 63 45" fill="none" xmlns="http://www.w3.org/2000/svg">
<path d="M13.1499 42.5809C13.1499 42.8155 13.3293 42.9949 13.5639 42.9949H49.8978C50.1323 42.9949 50.3117 42.8155 50.3117 42.5809V19.6187C50.3117 19.3841 50.1323 19.2047 49.8978 19.2047H13.5639C13.3293 19.2047 13.1499 19.3841 13.1499 19.6187V42.5809Z" stroke="white" stroke-width="3.27464" stroke-miterlimit="10"/>
<path d="M13.1499 19.2046L2 7.68213" stroke="white" stroke-width="3.27464" stroke-miterlimit="10"/>
<path d="M50.298 19.3565L61.4479 7.83398" stroke="white" stroke-width="3.27464" stroke-miterlimit="10"/>
<path d="M19.7875 11.615L15.3303 4.92224" stroke="white" stroke-width="3.27464" stroke-miterlimit="10"/>
<path d="M25.3076 1.12744L27.6397 12.1532" stroke="white" stroke-width="3.27464" stroke-miterlimit="10"/>
<path d="M39.2587 34.729C41.5298 34.729 43.3709 32.8879 43.3709 30.6167C43.3709 28.3456 41.5298 26.5045 39.2587 26.5045C36.9876 26.5045 35.1465 28.3456 35.1465 30.6167C35.1465 32.8879 36.9876 34.729 39.2587 34.729Z" stroke="white" stroke-width="3.27464" stroke-miterlimit="10"/>
<path d="M24.3688 34.8532C26.6399 34.8532 28.481 33.0121 28.481 30.741C28.481 28.4699 26.6399 26.6288 24.3688 26.6288C22.0977 26.6288 20.2566 28.4699 20.2566 30.741C20.2566 33.0121 22.0977 34.8532 24.3688 34.8532Z" stroke="white" stroke-width="3.27464" stroke-miterlimit="10"/>
<path d="M37.2989 1.16882L34.9668 12.2084" stroke="white" stroke-width="3.27464" stroke-miterlimit="10"/>
<path d="M41.3835 11.6427L45.8408 4.94995" stroke="white" stroke-width="3.27464" stroke-miterlimit="10"/>
</svg>
