<svg width="28" height="28" viewBox="0 0 28 28" fill="none" xmlns="http://www.w3.org/2000/svg">
<g clip-path="url(#clip0_704_84)">
<path d="M13.8132 0.00127233C6.08186 0.104751 -0.101269 6.45679 0.00160089 14.1884C0.105079 21.9167 6.45651 28.1017 14.1876 27.9988C21.9174 27.8948 28.1017 21.5427 27.9989 13.8117C27.8954 6.08275 21.5436 -0.101902 13.8132 0.00127233ZM13.7718 22.5218L13.6945 22.5206C12.5039 22.4853 11.6645 21.6081 11.6983 20.4352C11.7315 19.2823 12.5913 18.4454 13.7426 18.4454L13.8117 18.4466C15.0355 18.4828 15.8654 19.3511 15.831 20.5578C15.7969 21.7141 14.9506 22.5218 13.7718 22.5218ZM18.7799 12.5821C18.4999 12.9799 17.8842 13.4738 17.1084 14.0783L16.2541 14.6681C15.7851 15.0327 15.502 15.3757 15.3958 15.7132C15.3121 15.9789 15.271 16.0492 15.2637 16.5897L15.2625 16.727H12.0005L12.0099 16.451C12.0498 15.3164 12.0778 14.6489 12.548 14.0974C13.2858 13.2313 14.9131 12.1834 14.9822 12.139C15.2153 11.9634 15.4119 11.7634 15.5583 11.5498C15.9007 11.0777 16.0523 10.7061 16.0523 10.3409C16.0523 9.83414 15.9019 9.36545 15.6046 8.94818C15.3188 8.54553 14.7759 8.34162 13.9906 8.34162C13.2118 8.34162 12.6786 8.58875 12.3596 9.09579C12.0316 9.61714 11.8657 10.1647 11.8657 10.7241V10.8631H8.50234L8.50843 10.718C8.59517 8.65784 9.33047 7.17445 10.693 6.30888C11.5492 5.75771 12.6144 5.47832 13.8573 5.47832C15.4844 5.47832 16.8579 5.87366 17.9393 6.6534C19.0349 7.44349 19.5906 8.62679 19.5906 10.1704C19.5906 11.0339 19.318 11.845 18.7799 12.5821Z" fill="#5B5B5B"/>
</g>
<defs>
<clipPath id="clip0_704_84">
<rect width="28" height="28" fill="white"/>
</clipPath>
</defs>
</svg>
