<svg width="48" height="48" viewBox="0 0 48 48" fill="none" xmlns="http://www.w3.org/2000/svg">
<g clip-path="url(#clip0_562_63)">
<path fill-rule="evenodd" clip-rule="evenodd" d="M0 0V48H48V0H0ZM40.5958 10.6212L34.9562 37.7476C34.8234 38.3881 34.0724 38.6783 33.5425 38.2932L25.844 32.704C25.3767 32.3647 24.7394 32.3827 24.292 32.7475L20.0237 36.2268C19.5284 36.6319 18.7819 36.4062 18.5922 35.7961L15.6285 26.2645L7.97138 23.4068C7.19356 23.1154 7.18692 22.0173 7.96251 21.7186L39.3874 9.59567C40.0536 9.33806 40.7409 9.92165 40.5958 10.6212Z" fill="white"/>
<path fill-rule="evenodd" clip-rule="evenodd" d="M33.0796 15.5266L18.1148 24.7433C17.5412 25.0973 17.2712 25.7899 17.4563 26.4384L19.0742 32.1236C19.1893 32.5264 19.7738 32.4853 19.8298 32.0691L20.2503 28.9514C20.3297 28.3644 20.6096 27.8234 21.0438 27.4194L33.394 15.9393C33.6252 15.7251 33.3484 15.3615 33.0796 15.5266Z" fill="white"/>
</g>
<defs>
<clipPath id="clip0_562_63">
<rect width="48" height="48" fill="white"/>
</clipPath>
</defs>
</svg>
