<svg width="38" height="38" viewBox="0 0 38 38" fill="none" xmlns="http://www.w3.org/2000/svg">
<g clip-path="url(#clip0_704_106)">
<path fill-rule="evenodd" clip-rule="evenodd" d="M32.9948 24.0384L24.5979 24.5982L27.3969 27.3972C22.7663 32.0278 15.2337 32.0278 10.6031 27.3972C7.77393 24.568 6.68233 20.655 7.31154 16.9806L4.08601 17.1966C3.55533 21.6257 4.97272 26.2451 8.36395 29.6364C14.2283 35.5007 23.7717 35.5007 29.6361 29.6364L32.435 32.4353L32.9948 24.0384ZM13.4021 13.4024L10.6031 10.6034C15.2337 5.97279 22.7663 5.97279 27.3969 10.6034C30.2261 13.4326 31.3177 17.3455 30.6896 21.0189L33.914 20.8039C34.4447 16.3749 33.0273 11.7555 29.6361 8.36423C23.7717 2.49984 14.2283 2.49984 8.36395 8.36423L5.56499 5.56526L5.00519 13.9622L13.4021 13.4024Z" fill="#161616"/>
</g>
<defs>
<clipPath id="clip0_704_106">
<rect width="38" height="38" fill="white"/>
</clipPath>
</defs>
</svg>
